<svg viewBox="0 0 330.62 79.15" xmlns="http://www.w3.org/2000/svg"><g fill="#fff"><path d="m51 49.23a29.08 29.08 0 0 1 -3.29 13.51 28 28 0 0 1 -9.17 10.43 27.86 27.86 0 0 1 -15.73 5.11 24.41 24.41 0 0 1 -4.44-.38 21.49 21.49 0 0 1 -10.5-4.9 21.65 21.65 0 0 1 -6.62-9.46 21 21 0 0 1 -1.25-7.36 23.42 23.42 0 0 1 3-11.49 34.07 34.07 0 0 1 2.22-3.18 20.08 20.08 0 0 1 6.57-4.93v-29.58c0-2.19-.49-3.6-1.45-4.25v-2.75a44.24 44.24 0 0 0 6.76.29h11.18q7.82 0 12.36 3.71a12.6 12.6 0 0 1 4.53 10.23 10.54 10.54 0 0 1 -1.69 5.69 16.73 16.73 0 0 1 -4.48 4.69 101.78 101.78 0 0 1 7.33 9.17 25 25 0 0 1 3.86 8.69 26.89 26.89 0 0 1 .81 6.76zm-11.86 7.77a22 22 0 0 0 1.4-7.77 25.06 25.06 0 0 0 -.92-6.76 22.44 22.44 0 0 0 -2.46-5.79 25.33 25.33 0 0 0 -3.52-4.3 29.46 29.46 0 0 0 -4.88-3.91 33.65 33.65 0 0 1 -3.42.05c-1.32 0-2.27-.05-2.85-.05v7.92a11.05 11.05 0 0 1 3.43 2.41 12.24 12.24 0 0 1 2.36 3.48 12.08 12.08 0 0 1 .87 4.63 11.09 11.09 0 0 1 -1.16 5 12.75 12.75 0 0 1 -3.76 4.68 35 35 0 0 1 -6 3.72c.07 1-.37.61-1.3-1.26a38.3 38.3 0 0 1 -2.32-5.74q-.91-2.94.15-2.37a6.38 6.38 0 0 0 3.47-1 4.37 4.37 0 0 0 2.32-2.41 3.14 3.14 0 0 0 .1-.87 4 4 0 0 0 -1-2.61 3.12 3.12 0 0 0 -2.47-1.05q-2.61 0-4.82 3.38a17.2 17.2 0 0 0 -3 9.85 12.06 12.06 0 0 0 2.64 7.86 11.37 11.37 0 0 0 9.56 4.54 18.21 18.21 0 0 0 7-1.45 21.41 21.41 0 0 0 6.23-3.86 15.51 15.51 0 0 0 4.35-6.32zm-16.65-38.08h5.79q6.18 0 6.18-4.73 0-4.24-6.18-4.25h-5.79z"/><path d="m47.3 58.2a3.53 3.53 0 0 0 2.6-1.93l15.74-40.54a1.21 1.21 0 0 0 -.1-1.06c-.06-.19-.47-.34-1.21-.43a13.64 13.64 0 0 0 -1.69-.15v-2.09h13.61l17.19 44.3a2.76 2.76 0 0 0 1.06 1.07l1.5.63.67.1.19 2.8a44.55 44.55 0 0 0 -7.24-.68l-7.91.68.29-2.41h.1c.06 0 .16-.06.28-.19l.29-.29c0-.06.07-.16.2-.29a.7.7 0 0 0 -.1-.58l-3.09-7.82h-15.88l-3.28 7.82a.67.67 0 0 0 .1.77c.25.26.45.39.58.39l.38.19v2.42a38.86 38.86 0 0 0 -7.24-.68c-.9 0-2.12.07-3.67.19l-2.7.29-.87.2zm29.63-16.41-5.12-15.54-5.4 15.54z"/><path d="m95.85 59.17q1.44-1.06 1.44-4.05v-36.68c0-2.06-.48-3.41-1.44-4.06v-2a34.44 34.44 0 0 0 6.75.58l6.76-.48v1.93a5.52 5.52 0 0 0 -1.45 4.06l.1 15.63 17.86-.1v-15.56c0-2.06-.49-3.41-1.45-4.06v-2a34.44 34.44 0 0 0 6.75.58l6.76-.48v1.93a5.52 5.52 0 0 0 -1.45 4.06v36.65a5.3 5.3 0 0 0 1.45 4.05v2a46.66 46.66 0 0 0 -6.76-.49c-1.41 0-2.5 0-3.28.1l-2.6.39-.87.19v-2.19c1-.71 1.45-2.06 1.45-4.05v-11.59l-17.86.1-.1 11.49a5.3 5.3 0 0 0 1.45 4.05v2a46.66 46.66 0 0 0 -6.76-.49c-1.41 0-2.51 0-3.28.1l-2.6.39-.87.19z"/><path d="m137.16 58.2a3.56 3.56 0 0 0 2.61-1.93l15.73-40.54a1.14 1.14 0 0 0 -.1-1.06c-.06-.19-.47-.34-1.2-.43a14 14 0 0 0 -1.69-.15v-2.09h13.61l17.18 44.3a2.76 2.76 0 0 0 1.06 1.07l1.45.67.67.1.2 2.8a44.75 44.75 0 0 0 -7.24-.68l-7.92.68.29-2.42h.1c.06 0 .16-.06.29-.19l.29-.29c0-.06.06-.16.19-.29a.7.7 0 0 0 -.1-.58l-3.09-7.82h-15.83l-3.28 7.82a.69.69 0 0 0 .1.77c.26.26.45.39.58.39l.38.19v2.42a38.83 38.83 0 0 0 -7.23-.68c-.91 0-2.13.07-3.67.19l-2.71.29-.86.2zm29.63-16.41-5.11-15.54-5.41 15.54z"/><path d="m235.13 18v36.63a5.53 5.53 0 0 0 1.35 4.06v2a46 46 0 0 0 -6.66-.48c-1.48 0-2.57 0-3.28.1l-2.61.38-1 .2v-2.2c1-.71 1.45-2.06 1.45-4.06v-23.07l-8.21 16.22a3.36 3.36 0 0 0 .83 1.22v2a34.1 34.1 0 0 0 -5.79-.48c-1.22 0-2.15 0-2.8.1l-2.22.38-.77.19v-2.19a2 2 0 0 0 .77-1l-8.3-16.51v23.14a5.53 5.53 0 0 0 1.35 4.06v2a43.45 43.45 0 0 0 -6.66-.48c-1.48 0-2.57 0-3.28.1l-2.6.38-1 .2v-2.2c1-.65 1.54-2 1.54-4.06v-36.63c0-2.06-.51-3.41-1.54-4v-2a36 36 0 0 0 6.85.58h4.54l14 26.16 14-26.16h4.73l6.66-.48v1.8a5.5 5.5 0 0 0 -1.35 4.1z"/><path d="m319.8 38.52a27.08 27.08 0 0 1 4.92 14.48 23 23 0 0 1 -3.34 12.76 26.34 26.34 0 0 1 -10 9.52 28.17 28.17 0 0 1 -13.62 3.83 25.41 25.41 0 0 1 -15.07-4.11 21.51 21.51 0 0 1 -6.81-7.73 22.9 22.9 0 0 1 -2.71-10.17 18.85 18.85 0 0 1 3.91-12.41 20.32 20.32 0 0 1 6.61-5.69 17.66 17.66 0 0 1 7.36-2 14.81 14.81 0 0 1 6.62 1.29 14.52 14.52 0 0 1 5.84 4.42 17.6 17.6 0 0 1 3.39 6.81 18.58 18.58 0 0 1 .49 3.79 15.67 15.67 0 0 1 -3.39 10.44l-.18.19-7.82-6.27.18-.19a5.69 5.69 0 0 0 1.28-3.93 7 7 0 0 0 -1.13-3.73 6.17 6.17 0 0 0 -2.67-2.29 5.47 5.47 0 0 0 -2.33-.48 6.46 6.46 0 0 0 -2.94.82 10.58 10.58 0 0 0 -3.26 2.79 8.09 8.09 0 0 0 -1.75 3.85 10.46 10.46 0 0 0 -.2 2.42 13 13 0 0 0 1.46 5.66 10.2 10.2 0 0 0 3.64 4.12 15.31 15.31 0 0 0 9.17 2.51 18.67 18.67 0 0 0 9-2.58 16.7 16.7 0 0 0 6.19-5.74 13.23 13.23 0 0 0 2.06-7.48 17.89 17.89 0 0 0 -3.7-9.87 34.56 34.56 0 0 0 -9.58-8.86l-3.49-2c-2.83-1.59-5.27-3.09-7.32-4.52a23.39 23.39 0 0 1 -5.49-5.4 12.85 12.85 0 0 1 -2.53-7.44 16.16 16.16 0 0 1 .36-3.54 13.58 13.58 0 0 1 4.11-7.12 16.58 16.58 0 0 1 7.76-4.11 18.88 18.88 0 0 1 3.88-.48 17.64 17.64 0 0 1 7.3 1.32 13.42 13.42 0 0 1 5.54 4.15 14.34 14.34 0 0 1 3.23 9 17.43 17.43 0 0 1 -.26 3.72 14 14 0 0 0 .41 1.47l-.5 1.87a41.35 41.35 0 0 0 -5.25-1.89q-.93-.25-2.61-.57a12.14 12.14 0 0 0 -2.14-.22l-.84-.07.59-2a1 1 0 0 0 .46-.39h.09a3.15 3.15 0 0 1 .08-.51 6.26 6.26 0 0 0 .06-1.16 5.21 5.21 0 0 0 -1-3 4.72 4.72 0 0 0 -2.13-1.37 7.93 7.93 0 0 0 -2.84-.43 10.58 10.58 0 0 0 -1.75.24 8.06 8.06 0 0 0 -3 1.38 3.51 3.51 0 0 0 -1.43 3.2 5.72 5.72 0 0 0 2.53 4.28 63.57 63.57 0 0 0 7.58 4.9c2.08 1.17 3.4 1.94 4 2.29a42.77 42.77 0 0 1 12.98 12.23z"/><path d="m270 55.87a19.34 19.34 0 0 1 .33-4.56 18.74 18.74 0 0 1 3.58-7.85c.43-.57.89-1.1 1.36-1.62l-11.57-29.84h-13.61v2.12a13.64 13.64 0 0 1 1.69.15c.74.09 1.14.24 1.21.43a1.18 1.18 0 0 1 .09 1.06l-15.73 40.51a3.56 3.56 0 0 1 -2.61 1.93l-.19 2.71.87-.2 2.7-.29c1.55-.12 2.77-.19 3.67-.19a38.94 38.94 0 0 1 7.24.68v-2.42l-.39-.19c-.13 0-.32-.13-.58-.39a.69.69 0 0 1 -.09-.77l3.28-7.82h15.83l3 7.61c-.02-.35-.08-.71-.08-1.06zm-16.15-14.08 5.41-15.54 5.12 15.54z"/><path d="m320.16 6.74v-.87c0-.1 0-.2 0-.3a5.11 5.11 0 0 1 1.74-3.2 5.1 5.1 0 0 1 4.74-1.12 5 5 0 0 1 3.2 2.4 4.93 4.93 0 0 1 .64 3.61 5.1 5.1 0 0 1 -3.75 4.1 6.23 6.23 0 0 1 -.94.18h-.79-.31a5.16 5.16 0 0 1 -3.23-1.78 5.1 5.1 0 0 1 -1.13-2.22 6.33 6.33 0 0 1 -.17-.8zm1.08-.43a4.14 4.14 0 1 0 4.14-4.13 4.14 4.14 0 0 0 -4.14 4.13z"/><path d="m323.56 6.13v-2.41c0-.24.06-.3.3-.3h.57 1.68a1.75 1.75 0 0 1 1.6 1.48 1.68 1.68 0 0 1 -.82 1.72c-.12.07-.13.07-.06.21.3.54.59 1.09.89 1.64v.07a.19.19 0 0 1 -.17.3h-1a.22.22 0 0 1 -.2-.15c-.28-.56-.57-1.13-.84-1.69a.21.21 0 0 0 -.24-.14h-.27c-.14 0-.15 0-.15.14v1.63c0 .14-.08.22-.22.22h-.84a.2.2 0 0 1 -.22-.22c0-.13 0-.26 0-.39v-2.11zm1.95-.37h.49a.59.59 0 0 0 .58-.61.6.6 0 0 0 -.58-.62c-.36 0-.72 0-1.08 0-.08 0-.11 0-.11.1v1c0 .09 0 .12.12.11z"/></g></svg>